<svg id="图层_1" data-name="图层 1" xmlns="http://www.w3.org/2000/svg" viewBox="0 0 69.49 35.11"><title>pkg_management</title><path d="M28.88,15.78h8c7.16,0,11.47,2.32,11.47,8.81,0,6.21-4.23,9.22-11.28,9.22H31.09v13.6H28.88ZM36.49,32C43,32,46,29.79,46,24.59s-3.21-6.95-9.74-6.95H31.09V32Z" transform="translate(-28.88 -12.88)"/><path d="M55,12.88h2.1V38.33h.1l11.38-14H71L63.5,33.48l8.77,13.93H69.91L62.25,35.07l-5.17,6.06v6.28H55Z" transform="translate(-28.88 -12.88)"/><path d="M75.43,31.53c0-10,5.65-16.33,14-16.33A11.45,11.45,0,0,1,98.05,19l-1.29,1.48a9.41,9.41,0,0,0-7.3-3.25c-7.25,0-11.71,5.52-11.71,14.29S82,46,89.19,46a10.31,10.31,0,0,0,7.07-2.39V33.74H88.71V31.86h9.66V44.41C96.42,46.52,93.18,48,89,48,80.89,48,75.43,41.58,75.43,31.53Z" transform="translate(-28.88 -12.88)"/></svg>